PathFileType	4	(X/Y/Z)	D:\TRACE\v60_Jaco2_6-2-23\BothDRS_Motion2_10-v60.trc
DataRate	CameraRate	NumFrames	NumMarkers	Units	OrigDataRate	OrigDataStartFrame	OrigNumFrames
100.00	100.00	      20	9	mm	100.00	4688	      7500
Frame#	Time	front left toe			Front right toe			aft left toe			aft right toe			Arm			FL body			FR body			AL Body			AR Body			
		X1	Y1	Z1	X2	Y2	Z2	X3	Y3	Z3	X4	Y4	Z4	X5	Y5	Z5	X6	Y6	Z6	X7	Y7	Z7	X8	Y8	Z8	X9	Y9	Z9	

4688	46.870	-216.28716	3.45584	-337.34610	151.22316	-16.74237	-353.76959	-237.36203	36.00670	263.66644	117.81124	65.07099	307.41916	42.87132	1069.52112	-904.03864	-124.20248	552.22577	-492.92657	36.87877	550.06805	-492.48306	-127.82951	595.94043	452.78067	29.66682	586.96045	453.82349	
4689	46.880	-215.15932	12.15955	-335.28860	151.68523	-17.31790	-353.81784	-236.68715	35.88269	263.74741	116.72267	77.65539	309.50449	41.03370	1071.78125	-903.50562	-123.28172	551.00671	-491.66452	36.55172	549.00378	-490.95993	-127.49105	596.97351	453.67276	30.20061	587.93652	454.87418	
4690	46.890	-214.31622	24.44955	-333.70734	152.40495	-17.45539	-353.44586	-236.29840	35.58972	263.88443	120.11333	89.88414	309.99017	39.10856	1072.66992	-902.80011	-123.28487	550.36090	-491.04324	36.88050	547.80963	-490.00873	-127.15141	597.50232	454.49078	30.20650	588.53778	455.73322	
4691	46.900	-215.28595	36.54676	-333.25119	152.97916	-17.49445	-353.35104	-235.99355	35.38392	263.83902	123.53475	103.13631	311.20297	37.69790	1072.19763	-902.18091	-122.70229	549.71143	-490.10941	38.02561	547.49207	-489.13358	-127.00970	598.07190	455.67822	30.27517	588.87537	456.98184	
4692	46.910	-216.91537	48.81570	-332.55814	153.79083	-17.22624	-352.78403	-235.44531	35.29654	264.02539	126.78022	115.88305	311.08820	37.05560	1070.40186	-901.66565	-122.12688	549.19794	-488.84781	38.80716	547.09399	-487.72235	-127.80359	597.64050	456.58017	29.99285	589.40796	458.02866	
4693	46.920	-218.40587	60.55620	-331.88544	154.16400	-17.20562	-352.88516	-235.08685	34.94205	263.88779	129.42165	128.18736	311.12100	37.44267	1067.88831	-901.33636	-121.31818	548.02228	-487.39709	37.97586	546.52051	-486.56735	-127.82528	597.86902	458.53909	29.67018	589.71295	459.36487	
4694	46.930	-219.30177	71.61121	-330.90967	154.76703	-17.23492	-352.79749	-234.76195	34.91844	263.89410	130.93202	139.97292	310.58618	37.86062	1065.40027	-900.95221	-121.53048	546.88733	-486.36871	39.35809	545.88989	-485.30975	-128.02367	597.58282	458.96561	29.32431	590.06354	460.36331	
4695	46.940	-219.12595	81.69469	-329.70908	155.57401	-17.21523	-352.81818	-234.18163	34.93908	263.97159	131.65883	151.07463	310.68396	38.50718	1063.05774	-900.42847	-121.45216	545.55255	-484.83627	38.89247	544.74823	-483.53366	-128.19276	597.95917	460.16171	29.16107	590.58344	461.81155	
4696	46.950	-219.17897	90.69344	-328.33609	156.42709	-16.93340	-352.42886	-233.22636	34.97012	264.10623	132.42943	161.59708	310.98016	39.02165	1061.20593	-900.10425	-120.57132	543.91620	-483.20334	38.83483	543.69739	-482.40350	-128.12277	598.33551	461.76300	29.24228	591.39105	462.83994	
4697	46.960	-219.02908	97.62517	-326.54520	157.30463	-16.73539	-352.07602	-231.62282	34.61959	264.50558	133.15370	170.11975	311.29276	39.00199	1059.64221	-899.49048	-120.53827	542.73840	-482.18716	39.07521	542.78107	-481.02228	-127.74185	598.58954	462.28754	29.20723	592.13959	464.16592	
4698	46.970	-220.18129	102.15762	-324.50839	157.59000	-16.80064	-351.92181	-231.37495	34.67651	264.72076	134.44008	175.24649	312.26465	38.68199	1057.73828	-898.78094	-119.82408	541.16022	-480.73108	39.37598	541.44385	-479.58548	-129.12959	599.27051	463.84872	28.65431	592.41425	465.37863	
4699	46.980	-221.67494	103.86114	-322.54810	158.20749	-16.63299	-351.55530	-231.03482	34.54181	264.68729	136.51721	177.45551	313.89566	38.39560	1056.12390	-898.60864	-120.46124	540.15558	-479.84894	40.93974	540.22650	-478.57535	-128.58701	599.13055	464.39941	28.21699	592.99524	466.56058	
4700	46.990	-223.07559	102.10386	-320.79852	159.22878	-16.37553	-351.24051	-230.70311	34.22797	264.72565	137.51543	176.06165	315.31107	37.87424	1054.22144	-898.09290	-118.52051	538.36737	-478.30356	41.23844	539.22144	-477.06375	-128.72870	599.07434	465.51971	27.57102	593.17859	467.90619	
4701	47.000	-224.64824	97.99268	-319.00830	160.07314	-16.48032	-351.14471	-229.79732	33.88672	264.92331	138.05351	172.45372	316.88730	37.60667	1052.06396	-897.84656	-119.13634	537.19202	-477.83432	40.99109	537.85962	-475.78702	-129.15263	599.04620	466.83621	27.37414	593.59058	468.73758	
4702	47.010	-225.33170	93.00706	-317.65906	160.62013	-16.37399	-350.86560	-229.21210	33.79228	264.86209	137.55966	167.15071	318.20483	37.45235	1050.11926	-897.48157	-118.45350	536.19299	-476.61661	41.70510	536.89783	-474.33102	-129.63109	599.25995	467.50601	26.68748	593.73657	470.19724	
4703	47.020	-225.30838	86.59705	-316.85092	161.49269	-16.12387	-350.64063	-228.73116	33.75407	265.19427	136.56355	160.73114	318.66940	37.36788	1048.24683	-897.09735	-117.01251	534.62970	-475.10498	42.69492	536.05560	-473.46863	-129.72748	599.04919	468.73965	26.37554	593.81055	471.14127	
4704	47.030	-224.12984	79.29454	-316.09143	162.56142	-15.77309	-350.36694	-228.26131	33.41475	265.33047	136.26939	153.07381	318.81656	37.59365	1046.53723	-896.79535	-117.87951	534.27234	-474.67438	43.10732	535.42163	-472.61066	-130.06534	598.99561	469.24490	26.37894	594.00281	472.01132	
4705	47.040	-222.24573	70.06557	-316.20566	163.46596	-15.58431	-350.20035	-227.34520	32.94714	265.35205	135.16815	144.16862	318.34283	38.10602	1045.36426	-896.21545	-117.65923	532.97369	-474.04861	42.73241	534.51685	-471.34457	-130.34044	598.78455	469.95459	26.10225	594.01544	472.80777	
4706	47.050	-223.05963	61.45230	-315.86841	163.94548	-15.45803	-349.98071	-226.45457	32.72653	265.41946	134.68959	133.84605	317.97675	38.07441	1044.29272	-895.64423	-116.87859	531.87726	-473.25082	43.49619	533.60583	-470.75385	-130.62578	598.77954	470.63562	25.79051	594.11993	473.45535	
4707	47.060	-223.27388	52.20013	-315.91504	164.92303	-15.05473	-349.60059	-226.00504	32.77715	265.27713	134.73532	122.87649	317.15723	38.31295	1043.73511	-895.25269	-116.32431	531.03326	-472.98529	43.75900	532.75287	-470.10898	-131.04817	598.82098	471.05399	25.48779	594.28241	474.04742	
